Coordinates
version=1
nRows=29
nColumns=24
inDegrees=yes

Units are S.I. units (second, meters, Newtons, ...)
Angles are in degrees.

endheader
time	pelvis_tilt	pelvis_list	pelvis_rotation	pelvis_tx	pelvis_ty	pelvis_tz	hip_flexion_r	hip_adduction_r	hip_rotation_r	knee_angle_r	ankle_angle_r	subtalar_angle_r	mtp_angle_r	hip_flexion_l	hip_adduction_l	hip_rotation_l	knee_angle_l	ankle_angle_l	subtalar_angle_l	mtp_angle_l	lumbar_extension	lumbar_bending	lumbar_rotation
      1.32100000	      1.21042140	      4.58724792	     -0.52448418	      0.35841014	      1.00731765	      0.28530902	     17.00482010	     -4.02836788	      0.98218909	    -67.74770824	     -6.90633598	    -14.16565121	      1.50879252	      6.39834076	      9.39618767	     -0.64204826	     -9.01653805	      0.20430563	     -7.20165463	      4.38291982	     -1.88032924	     -2.39622210	      2.15671584
      1.32516667	      1.29382782	      4.49621255	     -0.43876427	      0.36333408	      1.00804292	      0.28509189	     17.45981933	     -3.90602400	      1.01684798	    -67.48620234	     -6.11676882	    -14.57689168	      1.41973162	      5.82328203	      9.33056415	     -0.41492034	     -8.71171956	      0.26870352	     -7.28275742	      4.35491583	     -2.00949167	     -2.30733176	      2.00097040
      1.32933333	      1.35177877	      4.38892420	     -0.33611922	      0.36823288	      1.00868260	      0.28484285	     17.92966724	     -3.77794150	      1.02465058	    -67.17447642	     -5.33397523	    -14.91639795	      1.30319776	      5.29013473	      9.24779478	     -0.17748723	     -8.43216693	      0.32245117	     -7.37100538	      4.31562209	     -2.10952091	     -2.17409205	      1.87473451
      1.33350000	      1.39086541	      4.24035527	     -0.21516587	      0.37312457	      1.00930331	      0.28459626	     18.38995146	     -3.60474066	      1.01384168	    -66.78034437	     -4.56546033	    -15.15767062	      1.26155901	      4.80634932	      9.11262597	      0.02064981	     -8.21237689	      0.41420695	     -7.37191655	      4.30109907	     -2.18315702	     -2.00006689	      1.81733155
      1.33766667	      1.44371375	      4.14533327	     -0.12124433	      0.37796964	      1.00985235	      0.28437951	     18.84719239	     -3.48695292	      1.03770941	    -66.37671317	     -3.83409008	    -15.52279387	      1.16073203	      4.28913160	      9.04018848	      0.28255985	     -7.94351009	      0.47247933	     -7.49897062	      4.26379323	     -2.31125895	     -1.89706986	      1.66366136
      1.34183333	      1.48219987	      3.99780864	      0.00252361	      0.38285766	      1.01039727	      0.28412763	     19.27895585	     -3.32874760	      1.00688152	    -65.87808867	     -3.13304741	    -15.75934821	      1.10718743	      3.80676802	      8.90513096	      0.49516370	     -7.71837338	      0.54724564	     -7.54414161	      4.24284818	     -2.37584424	     -1.71299195	      1.59053331
      1.34600000	      1.56947365	      3.89603326	      0.10342911	      0.38773207	      1.01094040	      0.28390349	     19.65576671	     -3.21557075	      1.00776612	    -65.35136846	     -2.48086061	    -16.12667266	      0.95020983	      3.23178008	      8.82601681	      0.80371265	     -7.40670096	      0.57710734	     -7.77662193	      4.17986385	     -2.51531771	     -1.60386371	      1.38973945
      1.35016667	      1.57519981	      3.75666689	      0.23209018	      0.39257988	      1.01134715	      0.28366911	     20.09963968	     -3.06866816	      0.98004440	    -64.76148420	     -1.82636122	    -16.31021262	      0.88440302	      2.80851775	      8.69548443	      1.02332635	     -7.22095235	      0.65757629	     -7.83629541	      4.15213668	     -2.55923986	     -1.43940033	      1.33181199
      1.35433333	      1.65069890	      3.65534173	      0.33383724	      0.39743622	      1.01179024	      0.28344913	     20.46052331	     -2.96284843	      0.97467855	    -64.13750696	     -1.22229166	    -16.62055367	      0.70785483	      2.25619119	      8.61259971	      1.33315068	     -6.92232271	      0.69474706	     -8.08130358	      4.07622170	     -2.68643521	     -1.32506891	      1.14409865
      1.35850000	      1.70556162	      3.52894233	      0.45016924	      0.40228990	      1.01219137	      0.28323241	     20.81792776	     -2.83430029	      0.95032138	    -63.44496415	     -0.64690839	    -16.82880356	      0.51270860	      1.75504231	      8.49647746	      1.60956223	     -6.68191469	      0.75072845	     -8.25660299	      3.99073516	     -2.78774290	     -1.17769112	      1.02066286
      1.36266667	      1.72886473	      3.39759867	      0.57608711	      0.40714410	      1.01251904	      0.28300335	     21.19058501	     -2.70647841	      0.91501905	    -62.69739776	     -0.14255602	    -17.01962862	      0.14036887	      1.28764545	      8.37432140	      1.91439263	     -6.43563106	      0.74661820	     -8.49345278	      3.82505001	     -2.84641893	     -1.01739577	      0.87510545
      1.36683333	      1.73120407	      3.28830649	      0.69036569	      0.41196139	      1.01273520	      0.28282054	     21.58490543	     -2.59687320	      0.90137196	    -61.93094260	      0.41254930	    -17.14991448	      0.06718537	      0.89598015	      8.26560972	      2.09841539	     -6.29575259	      0.91557055	     -8.52478207	      3.79415176	     -2.88752875	     -0.89731195	      0.84253558
      1.37100000	      1.82269598	      3.18342873	      0.78709256	      0.41682517	      1.01306808	      0.28264648	     21.85516412	     -2.49421285	      0.88753408	    -61.09807681	      0.87502489	    -17.36388065	     -0.10656736	      0.35122004	      8.16359816	      2.35943127	     -6.04097270	      0.99651736	     -8.70460989	      3.71563882	     -3.03528755	     -0.77400962	      0.68838952
      1.37516667	      1.86665497	      3.07229777	      0.89694417	      0.42166772	      1.01329320	      0.28246438	     22.15955284	     -2.38754297	      0.86803871	    -60.21763195	      1.30687483	    -17.51562338	     -0.31983011	     -0.12122381	      8.05297677	      2.63167522	     -5.82564404	      1.07448525	     -8.89830450	      3.61795711	     -3.12684483	     -0.64393438	      0.56521196
      1.37933333	      1.85677614	      2.96445090	      1.00929480	      0.42650167	      1.01340300	      0.28229598	     22.50819818	     -2.28516112	      0.85099616	    -59.29487603	      1.71417359	    -17.59778336	     -0.40306577	     -0.49383359	      7.94026159	      2.82190232	     -5.69199298	      1.20279746	     -8.96160518	      3.58042634	     -3.14390850	     -0.51266019	      0.52613642
      1.38350000	      1.92503068	      2.87554769	      1.10283250	      0.43135923	      1.01358020	      0.28215361	     22.75391350	     -2.20222420	      0.83822271	    -58.32885970	      2.05656581	    -17.75197207	     -0.59908514	     -1.00497616	      7.84809469	      3.09573943	     -5.44998860	      1.28895885	     -9.17671577	      3.48837166	     -3.26804016	     -0.41906196	      0.37079593
      1.38766667	      1.91263286	      2.76746226	      1.20978623	      0.43620981	      1.01362175	      0.28201291	     23.06682248	     -2.10169257	      0.81839360	    -57.31249791	      2.39491276	    -17.80760156	     -0.67124015	     -1.37221284	      7.72840584	      3.28253492	     -5.32148142	      1.43308374	     -9.23548198	      3.45581311	     -3.28734240	     -0.28719296	      0.33863115
      1.39183333	      1.98819177	      2.71302052	      1.28020112	      0.44108097	      1.01372914	      0.28188519	     23.27541068	     -2.05447734	      0.83307746	    -56.27934476	      2.77137882	    -17.72547593	     -4.02216959	     -1.90758154	      7.67393903	      3.59688842	     -5.05023430	      1.49033374	     -9.53588052	      1.85816597	     -3.41345022	     -0.22710519	      0.28111436
      1.39600000	      1.98759605	      2.61798021	      1.38715781	      0.44593741	      1.01372218	      0.28176100	     23.53492039	     -1.96915288	      0.81043859	    -55.17131918	      3.00014101	    -17.86737194	     -4.04129221	     -2.27916900	      7.56293932	      3.77761174	     -4.94154325	      1.67788492	     -9.56558013	      1.86617318	     -3.44594539	     -0.10930062	      0.18853742
      1.40016667	      2.01479661	      2.53121610	      1.47328942	      0.45081476	      1.01371808	      0.28167115	     23.74709078	     -1.88762440	      0.79909808	    -54.02368725	      3.20669736	    -17.96789376	     -4.06565580	     -2.70350711	      7.45861788	      3.96522651	     -4.78581570	      1.83266947	     -9.64150542	      1.86999913	     -3.51472447	     -0.01245242	      0.09524296
      1.40433333	      2.03178057	      2.46661771	      1.55007723	      0.45569500	      1.01365981	      0.28158792	     23.95416177	     -1.82981977	      0.80107210	    -52.84031057	      3.38341107	    -18.04316049	     -4.09500798	     -3.12065821	      7.37830523	      4.16397821	     -4.62209442	      1.97614799	     -9.74267722	      1.87013670	     -3.56910439	      0.05765995	      0.01335002
      1.40850000	      2.08867270	      2.41589982	      1.61030522	      0.46058313	      1.01361894	      0.28152588	     24.10154771	     -1.78245163	      0.81365785	    -51.62053214	      3.51215851	    -18.12728604	     -4.14573242	     -3.60168654	      7.31153984	      4.38533813	     -4.41864600	      2.09541663	     -9.88582859	      1.86297415	     -3.67901983	      0.11369107	     -0.09032869
      1.41266667	      2.06474340	      2.37954069	      1.68132859	      0.46546776	      1.01342347	      0.28144922	     24.32325670	     -1.75943108	      0.81840441	    -50.37916593	      3.66880710	    -18.15077932	     -4.17202847	     -3.95235194	      7.26093998	      4.54525035	     -4.30335036	      2.25891749	     -9.95023298	      1.85940004	     -3.66423755	      0.16776064	     -0.11896047
      1.41683333	      2.08911416	      2.30275118	      1.75343498	      0.47038037	      1.01329628	      0.28139970	     24.45549573	     -1.69395452	      0.79275817	    -49.06464981	      3.76140850	    -18.20042743	     -4.21015853	     -4.37447447	      7.15955366	      4.72322588	     -4.14904869	      2.42123369	    -10.04434586	      1.85056053	     -3.73785106	      0.24848280	     -0.18110890
      1.42100000	      2.12979069	      2.28516705	      1.79456751	      0.47527906	      1.01311230	      0.28138181	     24.56990906	     -1.67978722	      0.81324468	    -47.74849531	      3.82585677	    -18.26684023	     -4.28082293	     -4.83353122	      7.12410933	      4.91763045	     -3.95652230	      2.54768835	    -10.16487207	      1.82721384	     -3.82480458	      0.27044065	     -0.26823822
      1.42516667	      2.12604640	      2.24012768	      1.85312219	      0.48018374	      1.01287718	      0.28135326	     24.70043924	     -1.64418982	      0.80674510	    -46.37430269	      3.88606417	    -18.29388185	     -4.34186937	     -5.21599660	      7.05660644	      5.08178670	     -3.82262102	      2.71548604	    -10.23289235	      1.80474659	     -3.85878036	      0.32351048	     -0.31253547
      1.42933333	      2.09836059	      2.20670246	      1.90845190	      0.48511598	      1.01255834	      0.28132692	     24.84367331	     -1.62942296	      0.78138407	    -44.98385271	      3.96596350	    -18.28669892	     -4.37620202	     -5.56642311	      7.00148449	      5.20600319	     -3.70488250	      2.90980657	    -10.27037211	      1.79276859	     -3.84529476	      0.36410987	     -0.33431224
      1.43350000	      2.11904510	      2.19272664	      1.94624121	      0.49001885	      1.01227467	      0.28133670	     24.91548939	     -1.62222764	      0.78459968	    -43.55344608	      3.97334770	    -18.30751245	     -4.44062409	     -5.98183308	      6.96493747	      5.35425927	     -3.55806332	      3.06996761	    -10.32209478	      1.76181712	     -3.92160873	      0.37800312	     -0.39632407
      1.43766667	      2.08288332	      2.17255077	      1.99233476	      0.49495515	      1.01188423	      0.28133748	     25.03046585	     -1.62107747	      0.75360954	    -42.10119928	      4.02584780	    -18.27030598	     -4.47612389	     -6.31973777	      6.92198202	      5.46736582	     -3.44841833	      3.27088645	    -10.35388994	      1.74441708	     -3.90244884	      0.39739648	     -0.41257027
